<mxfile host="app.diagrams.net" agent="Mozilla/5.0 (Windows NT 10.0; Win64; x64) AppleWebKit/537.36 (KHTML, like Gecko) Chrome/128.0.0.0 Safari/537.36" version="24.7.12">
  <diagram name="PÃ¡gina-1" id="O3ah3-ypZ95lHd-5plx0">
    <mxGraphModel dx="1034" dy="412" grid="1" gridSize="10" guides="1" tooltips="1" connect="1" arrows="1" fold="1" page="1" pageScale="1" pageWidth="827" pageHeight="1169" math="0" shadow="0">
      <root>
        <mxCell id="0" />
        <mxCell id="1" parent="0" />
        <mxCell id="1mydGT7ySKppviEUDFsm-1" value="A" style="ellipse;whiteSpace=wrap;html=1;" vertex="1" parent="1">
          <mxGeometry x="340" y="350" width="60" height="50" as="geometry" />
        </mxCell>
        <mxCell id="1mydGT7ySKppviEUDFsm-21" value="" style="edgeStyle=orthogonalEdgeStyle;rounded=0;orthogonalLoop=1;jettySize=auto;html=1;" edge="1" parent="1" source="1mydGT7ySKppviEUDFsm-2" target="1mydGT7ySKppviEUDFsm-1">
          <mxGeometry relative="1" as="geometry" />
        </mxCell>
        <mxCell id="1mydGT7ySKppviEUDFsm-26" style="edgeStyle=orthogonalEdgeStyle;rounded=0;orthogonalLoop=1;jettySize=auto;html=1;entryX=0;entryY=0.5;entryDx=0;entryDy=0;" edge="1" parent="1" source="1mydGT7ySKppviEUDFsm-2" target="1mydGT7ySKppviEUDFsm-4">
          <mxGeometry relative="1" as="geometry" />
        </mxCell>
        <mxCell id="1mydGT7ySKppviEUDFsm-2" value="B" style="ellipse;whiteSpace=wrap;html=1;" vertex="1" parent="1">
          <mxGeometry x="340" y="260" width="60" height="50" as="geometry" />
        </mxCell>
        <mxCell id="1mydGT7ySKppviEUDFsm-4" value="C" style="ellipse;whiteSpace=wrap;html=1;" vertex="1" parent="1">
          <mxGeometry x="440" y="260" width="60" height="50" as="geometry" />
        </mxCell>
        <mxCell id="1mydGT7ySKppviEUDFsm-6" value="styled" style="rhombus;whiteSpace=wrap;html=1;" vertex="1" parent="1">
          <mxGeometry x="400" y="85" width="70" height="40" as="geometry" />
        </mxCell>
        <mxCell id="1mydGT7ySKppviEUDFsm-7" value="HEAD" style="rounded=0;whiteSpace=wrap;html=1;" vertex="1" parent="1">
          <mxGeometry x="405" y="20" width="60" height="20" as="geometry" />
        </mxCell>
        <mxCell id="1mydGT7ySKppviEUDFsm-8" value="main" style="rhombus;whiteSpace=wrap;html=1;" vertex="1" parent="1">
          <mxGeometry x="400" y="40" width="70" height="40" as="geometry" />
        </mxCell>
        <mxCell id="1mydGT7ySKppviEUDFsm-12" value="htmlify" style="rhombus;whiteSpace=wrap;html=1;" vertex="1" parent="1">
          <mxGeometry x="470" y="85" width="70" height="40" as="geometry" />
        </mxCell>
        <mxCell id="1mydGT7ySKppviEUDFsm-19" value="" style="edgeStyle=orthogonalEdgeStyle;rounded=0;orthogonalLoop=1;jettySize=auto;html=1;" edge="1" parent="1" source="1mydGT7ySKppviEUDFsm-14" target="1mydGT7ySKppviEUDFsm-2">
          <mxGeometry relative="1" as="geometry" />
        </mxCell>
        <mxCell id="1mydGT7ySKppviEUDFsm-14" value="D" style="ellipse;whiteSpace=wrap;html=1;" vertex="1" parent="1">
          <mxGeometry x="340" y="185" width="60" height="40" as="geometry" />
        </mxCell>
        <mxCell id="1mydGT7ySKppviEUDFsm-16" value="title" style="rhombus;whiteSpace=wrap;html=1;" vertex="1" parent="1">
          <mxGeometry x="270" y="80" width="70" height="40" as="geometry" />
        </mxCell>
        <mxCell id="1mydGT7ySKppviEUDFsm-20" value="" style="edgeStyle=orthogonalEdgeStyle;rounded=0;orthogonalLoop=1;jettySize=auto;html=1;" edge="1" parent="1" source="1mydGT7ySKppviEUDFsm-17" target="1mydGT7ySKppviEUDFsm-14">
          <mxGeometry relative="1" as="geometry" />
        </mxCell>
        <mxCell id="1mydGT7ySKppviEUDFsm-17" value="E" style="ellipse;whiteSpace=wrap;html=1;" vertex="1" parent="1">
          <mxGeometry x="340" y="85" width="60" height="40" as="geometry" />
        </mxCell>
        <mxCell id="1mydGT7ySKppviEUDFsm-24" style="edgeStyle=orthogonalEdgeStyle;rounded=0;orthogonalLoop=1;jettySize=auto;html=1;exitX=0.5;exitY=1;exitDx=0;exitDy=0;entryX=1.022;entryY=0.667;entryDx=0;entryDy=0;entryPerimeter=0;" edge="1" parent="1" source="1mydGT7ySKppviEUDFsm-4" target="1mydGT7ySKppviEUDFsm-1">
          <mxGeometry relative="1" as="geometry">
            <Array as="points">
              <mxPoint x="470" y="383" />
            </Array>
          </mxGeometry>
        </mxCell>
      </root>
    </mxGraphModel>
  </diagram>
</mxfile>
